<svg width="18" height="18" viewBox="0 0 18 18" fill="none" xmlns="http://www.w3.org/2000/svg">
									<path
										d="M11.6173 1.63745H5.60413C2.99222 1.63745 1.43512 3.19455 1.43512 5.80646V11.8124C1.43512 14.4315 2.99222 15.9886 5.60413 15.9886H11.6101C14.222 15.9886 15.7791 14.4315 15.7791 11.8196V5.80646C15.7863 3.19455 14.2292 1.63745 11.6173 1.63745ZM7.85726 12.7668C7.64917 12.9749 7.25451 13.1758 6.96749 13.2188L5.2023 13.47C5.13772 13.4771 5.07313 13.4843 5.00855 13.4843C4.71436 13.4843 4.44168 13.3839 4.24794 13.1901C4.01115 12.9533 3.91069 12.6089 3.9681 12.2286L4.21924 10.4634C4.2623 10.1692 4.45604 9.78173 4.6713 9.57363L7.87161 6.37333C7.92901 6.52402 7.98642 6.6747 8.06535 6.84692C8.1371 6.9976 8.21604 7.15547 8.30214 7.29898C8.3739 7.42096 8.45283 7.53577 8.51741 7.62188C8.59634 7.74386 8.68962 7.85867 8.74703 7.92325C8.78291 7.97348 8.81161 8.00936 8.82596 8.02371C9.00535 8.23898 9.21344 8.43989 9.39283 8.59058C9.44306 8.64081 9.47176 8.66951 9.48611 8.67669C9.59375 8.76279 9.70138 8.8489 9.79466 8.91348C9.90947 8.99959 10.0243 9.07852 10.1463 9.1431C10.2898 9.22921 10.4476 9.30814 10.6055 9.38707C10.7705 9.45883 10.9212 9.52341 11.0719 9.57363L7.85726 12.7668ZM12.464 8.16005L11.8038 8.82737C11.7608 8.87043 11.7034 8.89195 11.646 8.89195C11.6244 8.89195 11.5957 8.89196 11.5814 8.88478C10.1247 8.4686 8.9623 7.30615 8.54611 5.84951C8.52459 5.77058 8.54611 5.68447 8.60352 5.63425L9.27084 4.96692C10.3615 3.87623 11.402 3.89776 12.4711 4.96692C13.0165 5.51226 13.282 6.03608 13.282 6.58142C13.2748 7.09806 13.0093 7.6147 12.464 8.16005Z"
										fill="#1DB559"
									/>
								</svg>