<svg width="21" height="20" viewBox="0 0 21 20" fill="none" xmlns="http://www.w3.org/2000/svg">
<path d="M11.73 1.50989L13.49 5.02989C13.73 5.51989 14.37 5.98989 14.91 6.07989L18.1 6.60989C20.14 6.94989 20.62 8.42989 19.15 9.88989L16.67 12.3699C16.25 12.7899 16.02 13.5999 16.15 14.1799L16.86 17.2499C17.42 19.6799 16.13 20.6199 13.98 19.3499L10.99 17.5799C10.45 17.2599 9.56 17.2599 9.01 17.5799L6.02 19.3499C3.88 20.6199 2.58 19.6699 3.14 17.2499L3.85 14.1799C3.98 13.5999 3.75 12.7899 3.33 12.3699L0.850001 9.88989C-0.609999 8.42989 -0.139999 6.94989 1.9 6.60989L5.09 6.07989C5.62 5.98989 6.26 5.51989 6.5 5.02989L8.26 1.50989C9.22 -0.400107 10.78 -0.400107 11.73 1.50989Z" fill="#FBBC04"/>
</svg>
