<svg width="25" height="24" viewBox="0 0 25 24" fill="none" xmlns="http://www.w3.org/2000/svg">
<path d="M21.0841 6.72998C21.0641 6.72998 21.0341 6.72998 21.0041 6.72998C15.7141 6.19998 10.4341 5.99998 5.20414 6.52998L3.16414 6.72998C2.74414 6.76998 2.37414 6.46998 2.33414 6.04998C2.29414 5.62998 2.59414 5.26998 3.00414 5.22998L5.04414 5.02998C10.3641 4.48998 15.7541 4.69998 21.1541 5.22998C21.5641 5.26998 21.8641 5.63998 21.8241 6.04998C21.7941 6.43998 21.4641 6.72998 21.0841 6.72998Z" fill="white"/>
<path d="M8.58412 5.72C8.54412 5.72 8.50412 5.72 8.45412 5.71C8.05412 5.64 7.77412 5.25 7.84412 4.85L8.06412 3.54C8.22412 2.58 8.44412 1.25 10.7741 1.25H13.3941C15.7341 1.25 15.9541 2.63 16.1041 3.55L16.3241 4.85C16.3941 5.26 16.1141 5.65 15.7141 5.71C15.3041 5.78 14.9141 5.5 14.8541 5.1L14.6341 3.8C14.4941 2.93 14.4641 2.76 13.4041 2.76H10.7841C9.72412 2.76 9.70412 2.9 9.55412 3.79L9.32412 5.09C9.26412 5.46 8.94412 5.72 8.58412 5.72Z" fill="white"/>
<path d="M15.2941 22.7501H8.87413C5.38413 22.7501 5.24413 20.8201 5.13413 19.2601L4.48413 9.19007C4.45413 8.78007 4.77413 8.42008 5.18413 8.39008C5.60413 8.37008 5.95413 8.68008 5.98413 9.09008L6.63413 19.1601C6.74413 20.6801 6.78413 21.2501 8.87413 21.2501H15.2941C17.3941 21.2501 17.4341 20.6801 17.5341 19.1601L18.1841 9.09008C18.2141 8.68008 18.5741 8.37008 18.9841 8.39008C19.3941 8.42008 19.7141 8.77007 19.6841 9.19007L19.0341 19.2601C18.9241 20.8201 18.7841 22.7501 15.2941 22.7501Z" fill="white"/>
<path d="M13.7441 17.25H10.4141C10.0041 17.25 9.66406 16.91 9.66406 16.5C9.66406 16.09 10.0041 15.75 10.4141 15.75H13.7441C14.1541 15.75 14.4941 16.09 14.4941 16.5C14.4941 16.91 14.1541 17.25 13.7441 17.25Z" fill="white"/>
<path d="M14.5841 13.25H9.58411C9.17411 13.25 8.83411 12.91 8.83411 12.5C8.83411 12.09 9.17411 11.75 9.58411 11.75H14.5841C14.9941 11.75 15.3341 12.09 15.3341 12.5C15.3341 12.91 14.9941 13.25 14.5841 13.25Z" fill="white"/>
</svg>
